<svg xmlns="http://www.w3.org/2000/svg" width="232" height="24" viewBox="0 0 232 24">
    <path fill="#ffffff" fill-rule="evenodd" d="M231.44 23.6h-5.2l-4.8-8.96h-5.36v8.96h-4.56V.8h11.36c5.2 0 7.68 2.08 7.68 6.88 0 3.52-1.6 5.76-4.4 6.4l5.28 9.52zm-9.76-18.72h-5.6v5.76h5.6c2.72 0 4.08-.56 4.08-2.88s-1.36-2.88-4.08-2.88zM193.12 21.6c-2.24-1.84-3.36-4.88-3.36-8.96 0-8.08 3.28-11.84 10.32-11.84h7.68v4h-7.52c-3.28 0-4.96 1.68-5.2 5.28h12.72v4h-12.72c0 4.08 1.6 5.6 5.2 5.6h7.52v4H200c-2.72-.08-4.72-.32-6.88-2.08zm-10.96 2h-4.72V4.8h-7.04v-4h18.88v4h-7.12v18.8zm-13.2 0l-2-5.44h-9.52l-1.92 5.44h-4.88L159.92.8h4.88l9.28 22.8h-5.12zm-6.8-18.24l-3.2 8.8h6.48l-3.28-8.8zM141.2 23.6l-4.64-17.04-4.08 17.04h-5.6L119.6.8h4.96l5.04 17.52L133.84.8h5.44l4.88 17.52L148.88.8h4.72l-6.72 22.8h-5.68zm-38.88-2c-2.24-1.84-3.36-4.88-3.36-8.96C98.96 4.56 102.24.8 109.28.8h7.68v4h-7.52c-3.28 0-4.96 1.68-5.2 5.28h12.64v4h-12.72c0 4.08 1.6 5.6 5.2 5.6h7.52v4h-7.76c-2.64-.08-4.72-.32-6.8-2.08zm-22.96 0C77.12 19.76 76 16.72 76 12.64 76 4.56 79.28.8 86.32.8h9.92v3.92h-9.92c-3.68 0-5.2 2.48-5.2 7.68 0 5.2 1.44 7.12 5.2 7.12h5.2v-5.36h-6.16v-4h10.88v13.52h-9.92c-2.72-.08-4.8-.24-7.04-2.08h.08zm-15.84 2H53.36V.8h10c7.04 0 10.32 3.76 10.32 11.84 0 4.16-1.12 7.12-3.36 8.96-2.24 1.84-4.16 2-6.88 2h.08zm-.24-18.88h-5.36V19.6h5.36c4.08 0 5.36-1.84 5.36-7.44 0-5.6-1.28-7.44-5.36-7.44zm-18.32-4h4.8v22.8h-4.8V.72zm-7.6 22.8l-4.8-8.96h-5.44v8.96h-4.56V.72h11.36c5.2 0 7.68 2.08 7.68 6.88 0 3.52-1.6 5.76-4.4 6.4l5.44 9.52h-5.28zM32.8 4.8h-5.6v5.76h5.6c2.72 0 4.08-.56 4.08-2.88s-1.36-2.8-4.16-2.8l.08-.08zM12 23.52H0V.72h11.2c2.56 0 4.4.24 5.6 1.04 1.665 1.267 2.573 3.292 2.41 5.378-.16 2.086-1.37 3.947-3.21 4.942 2.128.81 3.465 2.93 3.28 5.2.08 4.4-2.32 6.32-7.28 6.32v-.08zM11.28 4.8H4.56v5.28h6.72c2.08 0 3.04-.8 3.04-2.64s-.96-2.56-3.04-2.56V4.8zm.08 9.28h-6.8v5.36h6.8c2.08 0 3.04-.8 3.04-2.64s-1.04-2.64-3.04-2.64v-.08z"/>
</svg>