<svg version="1.1" xmlns="http://www.w3.org/2000/svg" width="200" height="43" viewBox="0 0 200 43">
	<path class="nutanix-text nutanix-logo" d="M119.4,29.4h-1c-0.1,0-0.1,0-0.1,0.1V34c0,0.1,0,0.1,0.1,0.1h1c0.1,0,0.1,0,0.1-0.1
		v-4.5C119.5,29.4,119.4,29.4,119.4,29.4z"></path>
	<path class="nutanix-text nutanix-logo" d="M100.5,29.4h-0.8c-0.1,0-0.2,0.1-0.2,0.2c0,0,0,2.9,0,3.1c0,0.3-0.5,0.4-1,0.4
		c-0.5,0-0.6,0-0.6,0s-0.1,0-0.6,0c-0.6,0-1-0.1-1-0.4c0-0.2,0-3.1,0-3.1c0-0.1-0.1-0.2-0.2-0.2h-0.8c-0.1,0-0.2,0.1-0.2,0.2
		c0,0,0,2.6,0,3.1s0.2,0.9,0.7,1.2c0.5,0.3,1.5,0.3,1.8,0.3c0.3,0,0.3,0,0.3,0s0,0,0.3,0c0.3,0,1.4,0,1.8-0.3
		c0.5-0.3,0.7-0.6,0.7-1.2s0-3.1,0-3.1C100.6,29.4,100.6,29.4,100.5,29.4z"></path>
	<path class="nutanix-text nutanix-logo" d="M125.1,29.4C125.1,29.4,125.1,29.4,125.1,29.4l1.5,0c0.1,0,0.1,0,0.1,0.1
		c0,0,0,0.1,0,0.1l-2,1.8c0,0,0,0-0.1,0c0,0-0.1,0-0.1,0l-0.7-0.6c0,0,0,0,0-0.1c0,0,0-0.1,0-0.1L125.1,29.4z"></path>
	<path class="nutanix-text nutanix-logo" d="M125.1,34.1C125.1,34.1,125.1,34.1,125.1,34.1l1.5,0c0.1,0,0.1,0,0.1-0.1
		c0,0,0-0.1,0-0.1l-2-1.8c0,0,0,0-0.1,0c0,0-0.1,0-0.1,0l-0.7,0.6c0,0,0,0,0,0.1c0,0,0,0.1,0,0.1L125.1,34.1z"></path>
	<path class="nutanix-text nutanix-logo nutanix-x" fill="#B0D235" d="M121.4,34.1C121.4,34.1,121.4,34.1,121.4,34.1l-1.5,0
		c-0.1,0-0.1,0-0.1-0.1c0,0,0-0.1,0-0.1l2.4-2.1c0,0,0-0.1,0-0.1c0,0,0-0.1,0-0.1l-2.4-2.1c0,0,0-0.1,0-0.1c0-0.1,0-0.1,0.1-0.1h1.4
		c0,0,0.1,0,0.1,0l2.6,2.3c0,0,0,0.1,0,0.1c0,0,0,0.1,0,0.1L121.4,34.1z"></path>
	<path class="nutanix-text nutanix-logo" d="M104.2,30.5c0-0.1,0-0.1,0.1-0.1h1.7c0.1,0,0.2-0.1,0.2-0.2v-0.7c0-0.1-0.1-0.2-0.2-0.2
		h-4.8c-0.1,0-0.2,0.1-0.2,0.2v0.7c0,0.1,0.1,0.2,0.2,0.2h1.7c0.1,0,0.1,0,0.1,0.1v3.4c0,0.1,0.1,0.2,0.2,0.2h0.8
		c0.1,0,0.2-0.1,0.2-0.2L104.2,30.5z"></path>
	<path class="nutanix-text nutanix-logo" d="M93.2,32.3C93.3,32.3,93.3,32.3,93.2,32.3c0.1,0,0.1,0,0.1-0.1v-2.7c0-0.1,0.1-0.2,0.2-0.2
		h0.8c0.1,0,0.2,0.1,0.2,0.2c0,0,0,3.5,0,3.9c0,0.4-0.2,0.6-0.3,0.6c-0.2,0.1-0.6,0-0.9-0.2c-0.3-0.2-3-2.6-3-2.6s-0.2-0.1-0.2-0.1
		s0,0,0,0c0,0-0.1,0-0.1,0.1v2.7c0,0.1-0.1,0.2-0.2,0.2h-0.8c-0.1,0-0.2-0.1-0.2-0.2c0,0,0-3.5,0-3.9c0-0.4,0.2-0.6,0.3-0.6
		c0.2-0.1,0.6,0,0.9,0.2c0.3,0.2,3,2.6,3,2.6S93.2,32.3,93.2,32.3z"></path>
	<path class="nutanix-text nutanix-logo" d="M116.5,32.3C116.5,32.3,116.6,32.3,116.5,32.3c0.1,0,0.1,0,0.1-0.1v-2.7
		c0-0.1,0.1-0.2,0.2-0.2h0.8c0.1,0,0.2,0.1,0.2,0.2c0,0,0,3.5,0,3.9c0,0.4-0.2,0.6-0.3,0.6c-0.2,0.1-0.6,0-0.9-0.2
		c-0.3-0.2-3-2.6-3-2.6s-0.2-0.1-0.2-0.1s0,0,0,0c0,0-0.1,0-0.1,0.1v2.7c0,0.1-0.1,0.2-0.2,0.2h-0.8c-0.1,0-0.2-0.1-0.2-0.2
		c0,0,0-3.5,0-3.9c0-0.4,0.2-0.6,0.3-0.6c0.2-0.1,0.6,0,0.9,0.2c0.3,0.2,3,2.6,3,2.6S116.5,32.3,116.5,32.3z"></path>
	<path class="nutanix-text nutanix-logo" d="M118.3,29.5c0-0.1,0.1-0.2,0.2-0.2h0.8c0.1,0,0.2,0.1,0.2,0.2v4.4
		c0,0.1-0.1,0.2-0.2,0.2h-0.8c-0.1,0-0.2-0.1-0.2-0.2V29.5z"></path>
	<path class="nutanix-text nutanix-logo" d="M111.8,33.9l-3-4.3l0,0c-0.1-0.2-0.3-0.3-0.6-0.3h0c-0.2,0-0.5,0.1-0.6,0.3l0,0l-3,4.3
		c0,0,0,0,0,0.1c0,0.1,0,0.1,0.1,0.1h1.1c0,0,0.1,0,0.1-0.1l0.8-1.1c0,0,0.1-0.1,0.1-0.1h2.8c0,0,0.1,0,0.1,0.1l0.8,1.1
		c0,0,0.1,0.1,0.1,0.1h1.1C111.7,34.1,111.8,34,111.8,33.9C111.8,34,111.8,33.9,111.8,33.9z M108.8,31.8h-1.2c0,0-0.1,0-0.1-0.1
		c0,0,0,0,0,0l0.6-0.9c0,0,0,0,0,0c0,0,0,0,0,0c0,0,0,0,0,0c0,0,0,0,0,0c0,0,0,0,0,0c0,0,0,0,0,0c0,0,0,0,0,0c0,0,0,0,0,0l0.6,0.9
		C108.9,31.7,108.9,31.7,108.8,31.8C108.9,31.8,108.9,31.8,108.8,31.8z"></path>
	<path class="nutanix-text" d="M78,31.6c0.4-0.1,0.6-0.4,0.6-0.8v-0.5c0-0.6-0.4-1-1.4-1h-3.8v4.8h3.8c1.2,0,1.5-0.5,1.5-1v-0.7
		C78.7,31.9,78.4,31.7,78,31.6z M74.1,29.9h3c0.6,0,0.9,0.2,0.9,0.5v0.5c0,0.3-0.2,0.5-0.7,0.5h-3.2V29.9z M78,33
		c0,0.5-0.4,0.6-1,0.6h-2.9v-1.7h3.2c0.4,0,0.7,0.1,0.7,0.5V33z"></path>
	<path class="nutanix-text" d="M82,34.1v-2l-3.1-2.8h0.9l2.5,2.3l2.6-2.3h0.9l-3.1,2.8v2H82z"></path>
	<path class="forecast-text" d="M55.5,17.1v6.2h-2.1V8.9h14.5v1.7H55.5v4.9h11.6v1.7H55.5z"></path>
	<path class="forecast-text" d="M73.8,23.3c-3.2,0-4.4-1.4-4.4-3.5v-7.5c0-2.1,1.2-3.5,4.4-3.5h9.3c3.2,0,4.4,1.4,4.4,3.5v7.5
		c0,2.1-1.2,3.5-4.4,3.5H73.8z M85.4,12.4c0-1.1-0.7-1.8-2.3-1.8h-9.3c-1.6,0-2.3,0.7-2.3,1.8v7.5c0,1.1,0.7,1.8,2.3,1.8h9.3
		c1.6,0,2.3-0.7,2.3-1.8V12.4z"></path>
	<path class="forecast-text" d="M104.2,23.3l-3.5-6.5h-8.3v6.5h-2.1V8.9h12c3.2,0,4.4,1.4,4.4,3.5v1c0,2-1.2,3.3-3.7,3.4l3.6,6.5
		H104.2z M104.5,12.4c0-1.1-0.7-1.8-2.3-1.8h-9.9v4.7h9.9c1.6,0,2.3-0.8,2.3-1.8V12.4z"></path>
	<path class="forecast-text" d="M109,23.3V8.9h14.5v1.7h-12.4v4.3h11.8v1.6h-11.8v5.2h12.4v1.6H109z"></path>
	<path class="forecast-text" d="M130.2,23.3c-3.2,0-4.4-1.4-4.4-3.5v-7.5c0-2.1,1.2-3.5,4.4-3.5h11.3v1.7h-11.3
		c-1.6,0-2.3,0.7-2.3,1.8v7.5c0,1.1,0.7,1.8,2.3,1.8h11.3v1.6H130.2z"></path>
	<path class="forcast-text nutanix-x" d="M160.9,23.3L153,11l-8,12.3h-2.3l9.6-14.4h1.5l9.5,14.4H160.9z"></path>
	<path class="forecast-text" d="M164.1,23.3v-1.6h12.3c1.5,0,2.3-0.8,2.3-1.8v-1.6c0-1.1-0.8-1.8-2.3-1.8H168
		c-3.2,0-4.4-1.4-4.4-3.5v-0.7c0-2.1,1.2-3.5,4.4-3.5h12v1.7h-12c-1.6,0-2.3,0.7-2.3,1.8V13c0,1.1,0.8,1.8,2.3,1.8h8.3
		c3.2,0,4.4,1.4,4.4,3.5v1.6c0,2.1-1.2,3.4-4.4,3.4H164.1z"></path>
	<path class="forecast-text" d="M189.5,23.3V10.5h-7.7V8.9H199v1.7h-7.4v12.8H189.5z"></path>
	<polygon class="forecast-text" points="1,8.9 1,9.4 8.8,9.4 8.8,23.3 9.3,23.3 9.3,9.4 16.9,9.4 16.9,8.9 	"></polygon>
	<polygon class="forecast-text" points="34,8.9 34,15.4 19.5,15.4 19.5,8.9 19,8.9 19,23.3 19.5,23.3 19.5,15.9 34,15.9 34,23.3
		34.5,23.3 34.5,8.9 	"></polygon>
	<polygon class="forecast-text" points="50.8,9.4 50.8,8.9 37.4,8.9 37.4,23.3 50.8,23.3 50.8,22.8 37.9,22.8 37.9,15.9 50.3,15.9
		50.3,15.4 37.9,15.4 37.9,9.4 	"></polygon>
</svg>