<svg version="1.1" id="Layer_1" xmlns="http://www.w3.org/2000/svg" xmlns:xlink="http://www.w3.org/1999/xlink" x="0px" y="0px" viewBox="0 196.9399871826172 512 118.11003112792969" style="enable-background:new 0 0 512 512;" xml:space="preserve">
<style type="text/css">
	.st0{fill:#E51635;}
	.st1{fill:#808080;}
</style>
<g id="XMLID_1_">
	<path id="XMLID_3_" class="st0" d="M58.92,221.49c0-0.14,0.28-0.14,0.42-0.14c0.14,0,0.28,0,0.42,0.14l41.66,76.31
		c10.52-10.8,17.11-25.39,17.11-41.66c0-32.68-26.51-59.2-59.2-59.2C26.51,196.94,0,223.46,0,256.14c0,16.27,6.59,31,17.25,41.66"></path>
	<path id="XMLID_4_" class="st0" d="M73.5,258.67l-4.07,11.36l20.34,37.03c0.84-0.56,1.68-1.12,2.67-1.68
		C86.55,290.79,79.68,273.53,73.5,258.67"></path>
	<polyline id="XMLID_5_" class="st0" points="64.25,272.55 59.34,259.79 54.43,272.55 59.34,281.53 	"></polyline>
	<path id="XMLID_6_" class="st0" d="M54.57,278.44l-12.91,33.39c0.98,0.42,1.96,0.7,3.09,0.98l13.33-24.55"></path>
	<path id="XMLID_7_" class="st0" d="M62.98,288.4l13.47,24.55c0.98-0.28,1.82-0.56,2.95-0.98l-12.76-33.53"></path>
	<path id="XMLID_8_" class="st0" d="M45.73,256.84l5.19,9.4l6.45-11.64l-5.19-13.47C50.22,245.9,47.97,251.09,45.73,256.84"></path>
	<path id="XMLID_9_" class="st0" d="M45.03,258.67c-5.89,14.87-12.91,32.26-18.8,46.71c0.84,0.56,1.68,1.12,2.81,1.54l20.2-37.03"></path>
	<path id="XMLID_10_" class="st0" d="M72.8,256.84c-2.38-5.75-4.49-11.08-6.31-15.71L61.3,254.6l6.31,11.64"></path>
	<path id="XMLID_11_" class="st0" d="M52.74,239.31l6.59,11.92l6.31-11.92c-3.79-9.12-6.17-15.43-6.31-15.85
		C59.06,223.88,56.53,230.19,52.74,239.31"></path>
	<path id="XMLID_12_" class="st0" d="M59.34,298.64l-5.61,16.27c1.68,0.14,3.65,0.14,5.61,0.14c1.82,0,3.79,0,5.61-0.14"></path>
	<path id="XMLID_15_" class="st0" d="M115.31,293.59v-1.26h0.7c0.42,0,0.84,0,0.84,0.56c0,0.56-0.56,0.56-0.98,0.56h-0.56V293.59z
		 M114.46,296.12h0.84v-1.82h0.56l0.98,1.82h0.98l-1.12-1.96c0.7-0.14,0.98-0.56,0.98-1.26c0-0.98-0.84-1.26-1.68-1.26h-1.54"></path>
	<path id="XMLID_18_" class="st0" d="M119.23,293.87c0,1.82-1.54,3.37-3.37,3.37c-1.82,0-3.37-1.54-3.37-3.37s1.54-3.37,3.37-3.37
		C117.83,290.65,119.23,292.05,119.23,293.87 M120.07,293.87c0-2.24-1.82-4.21-4.21-4.21c-2.24,0-4.21,1.82-4.21,4.21
		c0,2.24,1.82,4.21,4.21,4.21S120.07,296.26,120.07,293.87"></path>
	<path id="XMLID_21_" d="M166.36,232.01h5.61l19.5,45.45h-7.15l-4.63-11.22h-21.6l-4.49,11.22h-7.15L166.36,232.01L166.36,232.01z
		 M177.45,260.91l-8.42-20.9h-0.14l-8.56,20.9"></path>
	<rect id="XMLID_22_" x="195.12" y="228.93" width="5.75" height="48.53"></rect>
	<rect id="XMLID_23_" x="210.55" y="228.93" width="5.75" height="48.53"></rect>
	<path id="XMLID_26_" d="M229.21,231.87c2.24,0,4.21,1.96,4.21,4.21c0,2.38-1.96,4.21-4.21,4.21c-2.24,0-4.21-1.96-4.21-4.21
		C224.86,233.84,226.82,231.87,229.21,231.87 M226.26,247.16h5.75v30.44h-5.75V247.16z"></path>
	<path id="XMLID_29_" d="M241.41,250.81c3.23-3.09,7.86-4.49,12.06-4.49c8.98,0,12.76,4.91,12.76,10.1v15.57c0,2.1,0,3.93,0.28,5.47
		h-5.19c-0.14-1.54-0.14-3.09-0.14-4.63h-0.14c-2.52,3.93-6.03,5.33-10.66,5.33c-5.61,0-10.52-3.23-10.52-9.12
		c0-7.86,7.57-10.52,16.83-10.52h4.21v-1.12c0-3.09-2.24-6.45-7.29-6.45c-4.49,0-6.59,1.82-8.7,3.51L241.41,250.81z M257.68,262.87
		c-5.47,0-12.2,0.98-12.2,5.89c0,3.51,2.52,4.91,6.59,4.91c6.45,0,8.7-4.77,8.7-8.84v-1.96"></path>
	<path id="XMLID_30_" d="M273.96,247.16h5.75v4.63h0.14c1.54-3.23,5.33-5.47,9.96-5.47c5.89,0,11.08,3.51,11.08,11.64v19.64h-5.75
		v-17.96c0-5.75-3.23-7.86-6.87-7.86c-4.77,0-8.42,3.09-8.42,10.1v15.71h-5.75"></path>
	<path id="XMLID_31_" d="M329.5,255.16c-2.1-2.24-4.35-3.37-7.57-3.37c-6.31,0-9.54,5.05-9.54,10.8s3.79,10.38,9.82,10.38
		c3.23,0,5.47-1.12,7.43-3.37l4.07,4.07c-3.09,3.37-7.15,4.63-11.5,4.63c-9.4,0-15.99-6.45-15.99-15.85
		c0-9.4,6.45-16.13,15.99-16.13c4.49,0,8.7,1.54,11.64,4.77"></path>
	<path id="XMLID_34_" d="M343.39,264.42c0,5.33,4.91,8.84,10.24,8.84c3.51,0,6.17-1.82,8.42-4.63l4.35,3.37
		c-3.23,4.21-7.72,6.17-13.47,6.17c-9.68,0-15.71-7.01-15.71-15.99c0-9.12,6.59-15.99,15.71-15.99c10.8,0,14.87,8.28,14.87,16.13
		v2.1H343.39z M361.63,259.79c-0.14-5.05-2.95-8.84-8.84-8.84c-5.75,0-9.4,4.77-9.4,8.84"></path>
	<path id="XMLID_37_" class="st1" d="M375.23,232.01h15.85c19.22,0,23.85,14.31,23.85,22.72c0,11.64-8.7,22.72-24.97,22.72h-14.73
		V232.01z M381.4,271.71h7.72c10.38,0,19.22-5.75,19.22-16.97c0-5.75-3.09-16.97-17.81-16.97h-9.26"></path>
	<path id="XMLID_38_" class="st1" d="M468.23,252.07h-8.28v13.89c0,3.37,0,7.01,4.35,7.01c1.4,0,2.95-0.14,4.07-0.84v5.33
		c-1.4,0.7-4.07,0.98-5.19,0.98c-8.98,0-9.12-5.47-9.12-10.38v-15.85h-6.73v-5.05h6.73v-8.56h5.75v8.56h8.28"></path>
	<path id="XMLID_41_" class="st1" d="M419.98,250.81c3.23-3.09,7.86-4.49,12.06-4.49c8.98,0,12.76,4.91,12.76,10.1v15.57
		c0,2.1,0,3.93,0.28,5.47h-5.19c-0.14-1.54-0.14-3.09-0.14-4.63h-0.14c-2.52,3.93-6.03,5.33-10.66,5.33
		c-5.61,0-10.52-3.23-10.52-9.12c0-7.86,7.57-10.52,16.83-10.52h4.21v-1.12c0-3.09-2.24-6.45-7.29-6.45c-4.49,0-6.59,1.82-8.7,3.51
		L419.98,250.81L419.98,250.81z M436.25,262.87c-5.47,0-12.2,0.98-12.2,5.89c0,3.51,2.52,4.91,6.59,4.91c6.45,0,8.7-4.77,8.7-8.84
		v-1.96"></path>
	<path id="XMLID_44_" class="st1" d="M473.85,250.81c3.23-3.09,7.86-4.49,12.06-4.49c8.98,0,12.76,4.91,12.76,10.1v15.57
		c0,2.1,0,3.93,0.28,5.47h-5.19c-0.14-1.54-0.14-3.09-0.14-4.63h-0.14c-2.52,3.93-6.03,5.33-10.66,5.33
		c-5.61,0-10.52-3.23-10.52-9.12c0-7.86,7.57-10.52,16.83-10.52h4.21v-1.12c0-3.09-2.24-6.45-7.29-6.45c-4.49,0-6.59,1.82-8.7,3.51
		L473.85,250.81L473.85,250.81z M490.26,262.87c-5.47,0-12.2,0.98-12.2,5.89c0,3.51,2.52,4.91,6.59,4.91c6.45,0,8.7-4.77,8.7-8.84
		v-1.96"></path>
	<path id="XMLID_47_" class="st1" d="M507.23,273.39v-1.26h0.7c0.42,0,0.84,0,0.84,0.56s-0.56,0.56-0.98,0.56h-0.56V273.39z
		 M506.39,275.92h0.84v-1.82h0.56l0.98,1.82h0.98l-1.12-1.96c0.7-0.14,0.98-0.56,0.98-1.26c0-0.98-0.84-1.26-1.68-1.26h-1.54"></path>
	<path id="XMLID_50_" class="st1" d="M511.16,273.81c0,1.82-1.54,3.37-3.37,3.37s-3.37-1.54-3.37-3.37s1.54-3.37,3.37-3.37
		C509.62,270.45,511.16,271.99,511.16,273.81 M512,273.81c0-2.24-1.82-4.21-4.21-4.21c-2.24,0-4.21,1.82-4.21,4.21
		c0,2.24,1.82,4.21,4.21,4.21C510.18,277.88,512,276.06,512,273.81"></path>
</g>
</svg>