<?xml version="1.0" encoding="UTF-8"?>
<svg xmlns="http://www.w3.org/2000/svg" xmlns:xlink="http://www.w3.org/1999/xlink" width="50px" height="50px" viewBox="0 0 50 50" version="1.1">
<g id="surface1">
<path style="fill:none;stroke-width:9;stroke-linecap:butt;stroke-linejoin:miter;stroke:rgb(43.529412%,43.137255%,43.529412%);stroke-opacity:1;stroke-miterlimit:4;" d="M 327.133548 186.868 C 327.133548 265.256486 263.594486 328.795548 185.206 328.795548 C 106.817514 328.795548 43.278452 265.256486 43.278452 186.868 C 43.278452 108.479514 106.817514 44.940452 185.206 44.940452 C 263.594486 44.940452 327.133548 108.479514 327.133548 186.868 Z M 327.133548 186.868 " transform="matrix(0.170724,0,0,0.170724,-6.619148,-6.902892)"/>
<path style=" stroke:none;fill-rule:nonzero;fill:rgb(43.529412%,43.137255%,43.529412%);fill-opacity:1;" d="M 10.183594 25 C 10.183594 16.820312 16.816406 10.183594 25 10.183594 C 33.183594 10.183594 39.816406 16.820312 39.816406 25 C 39.816406 33.183594 33.183594 39.816406 25 39.820312 C 16.816406 39.816406 10.183594 33.183594 10.183594 25 Z M 15.113281 15.117188 C 12.585938 17.648438 11.019531 21.140625 11.019531 25 C 11.019531 28.863281 12.585938 32.355469 15.113281 34.886719 C 17.644531 37.417969 21.136719 38.980469 25 38.980469 C 28.863281 38.980469 32.355469 37.417969 34.886719 34.886719 C 37.417969 32.355469 38.980469 28.863281 38.980469 25 C 38.980469 21.140625 37.417969 17.648438 34.886719 15.117188 C 32.355469 12.585938 28.863281 11.023438 25 11.023438 C 21.136719 11.023438 17.644531 12.585938 15.113281 15.117188 Z M 15.113281 15.117188 "/>
<path style=" stroke:none;fill-rule:nonzero;fill:rgb(0%,40%,67.843137%);fill-opacity:1;" d="M 10.191406 25 L 25.007812 25 L 25.007812 10.183594 C 16.824219 10.183594 10.191406 16.816406 10.191406 25 Z M 10.191406 25 "/>
<path style=" stroke:none;fill-rule:nonzero;fill:rgb(0%,40%,67.843137%);fill-opacity:1;" d="M 39.8125 24.992188 L 24.996094 24.992188 L 24.996094 39.820312 C 33.179688 39.820312 39.8125 33.175781 39.8125 24.992188 Z M 39.8125 24.992188 "/>
<path style=" stroke:none;fill-rule:nonzero;fill:rgb(43.529412%,43.137255%,43.529412%);fill-opacity:1;" d="M 42.167969 11.300781 L 38.867188 13.484375 L 40.429688 10.445312 C 40.023438 9.964844 39.410156 9.460938 39.410156 9.460938 L 36.394531 10.972656 L 38.605469 7.730469 C 38.238281 7.421875 37.8125 7.167969 37.40625 6.855469 L 34.3125 11.6875 C 34.3125 11.6875 34.898438 12.03125 35.613281 12.691406 L 38.820312 11.035156 L 37.140625 14.1875 C 37.519531 14.585938 37.855469 15.070312 38.203125 15.5 L 43.078125 12.484375 C 43.078125 12.484375 42.78125 12.015625 42.167969 11.300781 Z M 25.34375 8.007812 L 26.828125 4.722656 L 26.964844 8.886719 C 27.5625 8.914062 28.445312 9.136719 28.445312 9.136719 L 28.179688 3.242188 C 27.058594 3.078125 26.164062 3.035156 26.164062 3.035156 L 24.730469 6.597656 L 23.335938 3.0625 C 23.335938 3.0625 22.410156 3.152344 21.289062 3.316406 L 21.023438 9.257812 C 21.023438 9.257812 21.90625 9 22.503906 8.976562 L 22.632812 4.75 L 24.121094 8.007812 Z M 12.769531 9.9375 L 12.769531 9.929688 C 12.914062 9.390625 12.746094 8.816406 12.332031 8.4375 C 11.730469 7.890625 10.832031 7.871094 9.875 8.828125 C 9.875 8.828125 8.109375 10.597656 6.910156 12.332031 L 11.207031 16.25 L 14.445312 12.621094 C 15.152344 11.84375 15.179688 10.742188 14.535156 10.152344 C 14.050781 9.714844 13.355469 9.652344 12.769531 9.9375 Z M 8.625 12.042969 C 10.144531 10.15625 10.753906 9.640625 10.753906 9.640625 C 11.15625 9.296875 11.449219 9.265625 11.6875 9.484375 C 11.929688 9.703125 11.898438 10.128906 11.621094 10.433594 L 9.46875 12.816406 Z M 13.460938 11.886719 L 11.203125 14.394531 L 10.351562 13.621094 L 12.613281 11.109375 C 12.886719 10.804688 13.300781 10.730469 13.539062 10.945312 C 13.773438 11.160156 13.738281 11.582031 13.460938 11.886719 Z M 13.460938 11.886719 "/>
</g>
</svg>
