<svg xmlns="http://www.w3.org/2000/svg" id="Layer_1" data-name="Layer 1" width="200" height="46" viewBox="0 0 200 46"><defs><style>.cls-1{fill:#3d4d55;}.cls-2{fill:#0075c9;}.cls-3{fill:#57c1e9;}.cls-4{fill:#00a8e1;}</style></defs><title>logo</title><path class="cls-1" d="M69,27.34c.25-.73.65-1,1.19-1a1,1,0,0,1,.94,1.09c0,1.49-2.28,5.34-7.16,5.34a7.6,7.6,0,0,1-8-7.3c-.07-1.42-.07-3.63,0-5.08.22-4.25,3.44-7.12,8-7.12,4.88,0,7.09,3.78,7.09,5.27a1,1,0,0,1-1,1.12c-.51,0-.87-.25-1.13-1a5.19,5.19,0,0,0-5-3.37c-3.33,0-5.64,2.1-5.79,5.08-.07,1.34-.1,3.81,0,5.12A5.46,5.46,0,0,0,64,30.75,5.31,5.31,0,0,0,69,27.34"/><path class="cls-1" d="M86.48,29.12V23.78a18.66,18.66,0,0,0-5.27-.9c-3.55,0-5.17,1.74-5.17,3.92,0,2.43,1.62,3.88,5.17,3.88a9.88,9.88,0,0,0,5.27-1.56m2.1.65a1.06,1.06,0,0,1-.47,1,13.12,13.12,0,0,1-7.23,2c-4.52,0-6.94-2.32-6.94-6,0-3.3,2.42-5.88,7.12-5.88a19.13,19.13,0,0,1,5.42.83V20.15c0-3.37-1.59-4.75-4.91-4.75a12.13,12.13,0,0,0-4.63,1c-.94.4-1.59-.14-1.59-.83A1.2,1.2,0,0,1,76,14.56a13.23,13.23,0,0,1,5.57-1.27c4.55,0,7,1.93,7,6.54Z"/><path class="cls-1" d="M102.06,14.71a1,1,0,0,1-1.12.94c-.76,0-1.41-.32-2.71-.32-2.42,0-3.62,1.09-3.62,3.63V31.44a1.07,1.07,0,0,1-1,1.13,1.09,1.09,0,0,1-1-1.13V18.85c0-3.49,2-5.56,5.67-5.56a11.38,11.38,0,0,1,3,.37,1.06,1.06,0,0,1,.87,1.05"/><path class="cls-1" d="M110.91,30.75a10.55,10.55,0,0,0,5.31-1.63V16.74a12.4,12.4,0,0,0-5.71-1.41c-3.39,0-5,1.7-5.27,5a34.55,34.55,0,0,0,0,5.19c.36,3.45,2.17,5.19,5.67,5.19m-.29-17.46a14.87,14.87,0,0,1,5.6,1.24V7.85a1.05,1.05,0,1,1,2.1,0V29.59a1,1,0,0,1-.47,1,13.38,13.38,0,0,1-7,2.22c-4.74,0-7.41-2.76-7.77-7.3a39.14,39.14,0,0,1,0-5.08c.39-4.58,3-7.12,7.51-7.12"/><path class="cls-1" d="M127,8.5V30.61a1.9,1.9,0,0,1-1.92,2,2,2,0,0,1-1.92-2V8.5a1.92,1.92,0,1,1,3.84,0"/><path class="cls-1" d="M129,15.91a2,2,0,0,1,1.73-2.8,2,2,0,0,1,1.95,1.45l4.88,11.73c0,.07.07.11.14.11a.21.21,0,0,0,.19-.11l4.48-11.65a2.07,2.07,0,0,1,2-1.53,2,2,0,0,1,1.81,2.8l-6.8,16.22c-1.44,3.45-3.43,5.88-4.91,6.83a3.19,3.19,0,0,1-1.63.54A1.78,1.78,0,0,1,131,37.69a1.94,1.94,0,0,1,.8-1.57,9.86,9.86,0,0,0,3.79-5Z"/><path class="cls-1" d="M165.48,15.51a1.75,1.75,0,0,0-1.81-1.7h-11.8V11.08a1.94,1.94,0,0,0-1.92-2,1.92,1.92,0,0,0-1.92,2V26.25c0,3.7,1.88,6.54,6,6.54a10.83,10.83,0,0,0,4-.7,1.85,1.85,0,0,0,1.3-1.77A1.75,1.75,0,0,0,157,28.61a9.6,9.6,0,0,1-2.6.55c-1.77,0-2.56-1.06-2.56-2.87V17.22h9.78V30.61a2,2,0,0,0,1.91,2,1.92,1.92,0,0,0,1.92-2V15.51m-1.92-4.9a2.18,2.18,0,0,0,2.13-2.22,2.15,2.15,0,0,0-4.29,0,2.16,2.16,0,0,0,2.16,2.22"/><path class="cls-1" d="M180.71,26.47a1.71,1.71,0,0,1,1.66-1,1.83,1.83,0,0,1,1.81,2c0,1.81-2.56,5.4-7.7,5.4a8.05,8.05,0,0,1-8.35-7.47c-.07-1.49-.07-3.7,0-5.16.29-4.32,3.73-7.29,8.35-7.29,5.14,0,7.63,3.59,7.63,5.41a1.83,1.83,0,0,1-1.81,2,1.72,1.72,0,0,1-1.63-1.06,4.3,4.3,0,0,0-4.11-2.61c-2.71,0-4.38,1.52-4.59,4a32.75,32.75,0,0,0,0,4.32,4.3,4.3,0,0,0,4.59,4.21,4.36,4.36,0,0,0,4.15-2.61"/><path class="cls-1" d="M200,26.8c0,3.66-3.07,6-7.26,6a10,10,0,0,1-6.65-2.06,1.9,1.9,0,0,1-.36-2.47,1.75,1.75,0,0,1,2.52-.36,7.19,7.19,0,0,0,4.67,1.41c2.2,0,3.32-1,3.32-2.39,0-1.06-.65-1.71-2.49-2.15-1.23-.29-1.23-.25-2.6-.61-3.18-.8-5.24-2.51-5.24-5.45,0-3.63,3.07-5.84,7.12-5.84a9.09,9.09,0,0,1,5.45,1.7,1.81,1.81,0,0,1,.18,2.47,2,2,0,0,1-2.49.26,6.27,6.27,0,0,0-3.33-.91c-2.2,0-3.25.8-3.25,2.25,0,1,.62,1.56,2.5,2l2.82.66c3.36.83,5.09,2.61,5.09,5.48"/><rect class="cls-2" x="18.32" y="9.2" width="9.16" height="9.2"/><polygon class="cls-3" points="0 0 0 27.6 9.16 27.6 9.16 18.4 18.32 18.4 18.32 9.2 27.48 9.2 27.48 0 0 0"/><rect class="cls-2" x="9.16" y="18.4" width="9.16" height="9.2"/><polygon class="cls-2" points="27.48 18.4 27.48 27.6 18.32 27.6 18.32 36.8 36.64 36.8 36.64 18.4 27.48 18.4"/><polygon class="cls-3" points="27.48 9.2 27.48 18.4 36.64 18.4 36.64 36.8 45.8 36.8 45.8 9.2 27.48 9.2"/><polygon class="cls-4" points="18.32 36.8 18.32 27.6 9.16 27.6 9.16 46 36.64 46 36.64 36.8 18.32 36.8"/></svg>